<svg width="197" height="161" viewBox="0 0 197 161" fill="none" xmlns="http://www.w3.org/2000/svg">
<g filter="url(#filter0_d_918_143)">
<path d="M21.8008 81.8281V82.3281H22.3008L30.1719 82.3282L30.177 82.3281C32.7996 82.3013 35.118 81.7319 37.1166 80.6036C39.1313 79.4735 40.6775 77.8507 41.7496 75.7477C42.8335 73.647 43.3672 71.2159 43.3672 68.4688L43.3672 66.6523L43.3672 66.6499C43.3538 63.9663 42.8127 61.5691 41.73 59.471C40.6589 57.37 39.1275 55.7414 37.14 54.5979C35.1538 53.4551 32.8782 52.8906 30.3281 52.8906H22.3008H21.8008V53.3906V81.8281ZM36.3625 75.7322L36.3611 75.7337C34.8734 77.4029 32.7754 78.2617 29.9961 78.2617H26.5508V56.9766H30.4234C33.0928 57.002 35.0901 57.8692 36.4884 59.5327L36.4883 59.5327L36.4909 59.5356C37.9122 61.1999 38.6562 63.5756 38.6562 66.7305V68.3906C38.6562 71.634 37.8681 74.0566 36.3625 75.7322Z" fill="white" stroke="black"/>
<path d="M88.7154 72.8627L88.7806 72.3047H88.2188H84.4492H84.021L83.9552 72.7278C83.5984 75.0211 82.8858 76.5271 81.8995 77.3646C80.9153 78.1982 79.4532 78.6523 77.4375 78.6523C75.2748 78.6523 73.6268 77.8138 72.4356 76.1293C71.2251 74.4175 70.5938 72.0757 70.5938 69.0547V66.3008C70.5938 63.0937 71.2592 60.6981 72.5215 59.0468C73.7864 57.4089 75.5163 56.5859 77.7695 56.5859C79.6369 56.5859 81.0162 57.07 81.9779 57.9737L81.9801 57.9758C82.9556 58.8816 83.6368 60.3925 83.9543 62.6024L84.0159 63.0312H84.4492H88.2188H88.7715L88.7162 62.4813C88.4073 59.4048 87.3051 56.9511 85.3747 55.1721C83.4404 53.3763 80.8877 52.5 77.7695 52.5C75.409 52.5 73.3103 53.0608 71.4903 54.1962C69.6695 55.3192 68.2664 56.9325 67.2787 59.0163L67.2787 59.0163L67.2775 59.0187C66.3036 61.1018 65.8242 63.5007 65.8242 66.2031V68.9375C65.8242 73.0573 66.8553 76.4047 68.9683 78.9266L68.9693 78.9278C71.1025 81.4575 73.9419 82.7188 77.4375 82.7188C80.6258 82.7188 83.2335 81.8797 85.208 80.1538L85.2082 80.1536C87.1956 78.4146 88.3527 75.9658 88.7154 72.8627Z" fill="white" stroke="black"/>
<path d="M128.375 69.1836H128.875V68.6836V65.6172V65.1172H128.375H116.551V56.9766H130.172H130.672V56.4766V53.3906V52.8906H130.172H112.301H111.801V53.3906V81.8281V82.3281H112.301H130.367H130.867V81.8281V78.7617V78.2617H130.367H116.551V69.1836H128.375Z" fill="white" stroke="black"/>
<mask id="path-4-outside-1_918_143" maskUnits="userSpaceOnUse" x="11" y="91.7422" width="134" height="17" fill="black">
<rect fill="white" x="11" y="91.7422" width="134" height="17"/>
<path d="M12 104.443V93.3516H15.1875C16.1221 93.3516 16.96 93.5598 17.7014 93.9763C18.4428 94.3876 19.0198 94.9793 19.4322 95.7512C19.8499 96.5232 20.0588 97.4018 20.0588 98.387V99.4078C20.0588 100.398 19.8525 101.277 19.4401 102.044C19.0276 102.81 18.4454 103.402 17.6936 103.819C16.947 104.235 16.0881 104.443 15.117 104.443H12ZM12.9633 94.1515V103.651H15.1248C16.3257 103.651 17.289 103.265 18.0147 102.493C18.7404 101.716 19.1033 100.667 19.1033 99.3469V98.3718C19.1033 97.0971 18.7456 96.0763 18.0304 95.3094C17.3151 94.5425 16.3727 94.1566 15.2031 94.1515H12.9633Z"/>
<path d="M25.5722 104.596C24.8517 104.596 24.1991 104.423 23.6143 104.078C23.0348 103.732 22.5831 103.252 22.2594 102.638C21.9357 102.018 21.7739 101.325 21.7739 100.558V100.231C21.7739 99.4383 21.9305 98.7248 22.2438 98.0899C22.5623 97.4551 23.0034 96.9574 23.5673 96.5968C24.1312 96.2312 24.7421 96.0483 25.3999 96.0483C26.4285 96.0483 27.243 96.3912 27.8434 97.0768C28.449 97.7573 28.7519 98.6892 28.7519 99.8725V100.383H22.7058V100.558C22.7058 101.493 22.98 102.272 23.5282 102.897C24.0816 103.516 24.776 103.826 25.6114 103.826C26.1126 103.826 26.5538 103.737 26.9349 103.56C27.3213 103.382 27.6711 103.097 27.9844 102.706L28.5717 103.141C27.8826 104.111 26.8827 104.596 25.5722 104.596ZM25.3999 96.8254C24.6951 96.8254 24.0999 97.0768 23.6143 97.5795C23.134 98.0823 22.8416 98.7578 22.7372 99.6059H27.8199V99.5069C27.7938 98.7146 27.5615 98.0696 27.1229 97.5719C26.6843 97.0742 26.11 96.8254 25.3999 96.8254ZM26.4415 92.7422H27.5771L25.768 94.8752H24.9457L26.4415 92.7422Z"/>
<path d="M33.7093 103.826C34.3619 103.826 34.9075 103.648 35.3461 103.293C35.7899 102.932 36.0301 102.468 36.0666 101.899H36.9673C36.9411 102.402 36.7793 102.861 36.4817 103.278C36.1841 103.689 35.7873 104.012 35.2913 104.245C34.8005 104.479 34.2732 104.596 33.7093 104.596C32.5972 104.596 31.7148 104.22 31.0622 103.468C30.4148 102.717 30.0911 101.706 30.0911 100.436V100.162C30.0911 99.3494 30.2373 98.6308 30.5296 98.0061C30.822 97.3815 31.2397 96.899 31.7827 96.5587C32.3309 96.2185 32.9705 96.0483 33.7015 96.0483C34.6308 96.0483 35.3957 96.3175 35.9961 96.8558C36.6018 97.3942 36.9255 98.1026 36.9673 98.9812H36.0666C36.0248 98.3363 35.7847 97.8157 35.3461 97.4196C34.9128 97.0234 34.3645 96.8254 33.7015 96.8254C32.8556 96.8254 32.1978 97.1225 31.7279 97.7167C31.2632 98.3109 31.0309 99.1437 31.0309 100.215V100.482C31.0309 101.533 31.2632 102.353 31.7279 102.943C32.1978 103.532 32.8583 103.826 33.7093 103.826Z"/>
<path d="M38.33 100.2C38.33 99.4078 38.4866 98.6943 38.7999 98.0595C39.1183 97.4246 39.5647 96.932 40.1391 96.5816C40.7186 96.2261 41.3739 96.0483 42.1048 96.0483C43.2326 96.0483 44.1463 96.4343 44.8459 97.2063C45.5455 97.9731 45.8953 98.9914 45.8953 100.261V100.451C45.8953 101.249 45.7361 101.967 45.4176 102.607C45.1043 103.242 44.6605 103.732 44.0862 104.078C43.5119 104.423 42.8566 104.596 42.1205 104.596C40.9979 104.596 40.0842 104.212 39.3794 103.445C38.6798 102.673 38.33 101.653 38.33 100.383V100.2ZM39.2698 100.451C39.2698 101.437 39.5308 102.247 40.0529 102.882C40.5802 103.511 41.2694 103.826 42.1205 103.826C42.9663 103.826 43.6502 103.511 44.1724 102.882C44.6997 102.247 44.9634 101.411 44.9634 100.375V100.2C44.9634 99.5703 44.8433 98.9939 44.6031 98.4708C44.3629 97.9477 44.0262 97.544 43.5928 97.2596C43.1595 96.9701 42.6635 96.8254 42.1048 96.8254C41.2694 96.8254 40.5881 97.1453 40.0607 97.7852C39.5334 98.42 39.2698 99.2529 39.2698 100.284V100.451Z"/>
<path d="M51.7534 96.9777C51.555 96.9422 51.3435 96.9244 51.119 96.9244C50.5343 96.9244 50.0383 97.0844 49.631 97.4043C49.229 97.7192 48.9418 98.1788 48.7695 98.7832V104.443H47.8376V96.2007H48.7539L48.7695 97.511C49.2655 96.5359 50.0617 96.0483 51.1582 96.0483C51.4192 96.0483 51.6255 96.0814 51.7769 96.1474L51.7534 96.9777Z"/>
<path d="M67.1116 101.335C66.9835 102.503 66.5606 103.397 65.843 104.017C65.1305 104.636 64.1796 104.946 62.9904 104.946C62.16 104.946 61.4244 104.741 60.7837 104.329C60.148 103.918 59.656 103.336 59.3074 102.585C58.9588 101.828 58.782 100.965 58.7769 99.9946V98.5548C58.7769 97.5695 58.9511 96.696 59.2997 95.9342C59.6483 95.1725 60.148 94.5859 60.799 94.1745C61.4552 93.7581 62.2087 93.5498 63.0596 93.5498C64.2591 93.5498 65.2048 93.8723 65.8968 94.5173C66.5939 95.1572 66.9989 96.0434 67.1116 97.176H66.1582C65.9224 95.2918 64.8895 94.3497 63.0596 94.3497C62.0446 94.3497 61.2347 94.7255 60.6299 95.4772C60.0302 96.2288 59.7303 97.2674 59.7303 98.5929V99.9489C59.7303 101.229 60.0225 102.249 60.6068 103.011C61.1963 103.773 61.9908 104.154 62.9904 104.154C63.9797 104.154 64.7255 103.92 65.2279 103.453C65.7302 102.981 66.0403 102.275 66.1582 101.335H67.1116Z"/>
<path d="M68.6879 100.551C68.6879 99.7584 68.8417 99.0449 69.1492 98.4101C69.4619 97.7752 69.9002 97.2826 70.464 96.9322C71.033 96.5767 71.6763 96.3989 72.3939 96.3989C73.5011 96.3989 74.3982 96.7849 75.0851 97.5569C75.7719 98.3237 76.1154 99.342 76.1154 100.612V100.802C76.1154 101.599 75.959 102.318 75.6463 102.958C75.3388 103.593 74.9031 104.083 74.3392 104.428C73.7754 104.774 73.1321 104.946 72.4093 104.946C71.3072 104.946 70.4102 104.563 69.7182 103.796C69.0313 103.024 68.6879 102.003 68.6879 100.734V100.551ZM69.6105 100.802C69.6105 101.787 69.8668 102.597 70.3794 103.232C70.8972 103.862 71.5738 104.177 72.4093 104.177C73.2397 104.177 73.9112 103.862 74.4238 103.232C74.9415 102.597 75.2004 101.762 75.2004 100.726V100.551C75.2004 99.9209 75.0825 99.3445 74.8467 98.8214C74.6109 98.2983 74.2803 97.8946 73.8548 97.6102C73.4294 97.3207 72.9424 97.176 72.3939 97.176C71.5738 97.176 70.9048 97.4959 70.3871 98.1358C69.8694 98.7706 69.6105 99.6035 69.6105 100.634V100.802Z"/>
<path d="M79.0525 104.794H78.1299V93.0928H79.0525V104.794Z"/>
<path d="M81.0517 100.551C81.0517 99.7584 81.2054 99.0449 81.513 98.4101C81.8257 97.7752 82.2639 97.2826 82.8278 96.9322C83.3968 96.5767 84.0401 96.3989 84.7577 96.3989C85.8649 96.3989 86.762 96.7849 87.4488 97.5569C88.1357 98.3237 88.4791 99.342 88.4791 100.612V100.802C88.4791 101.599 88.3228 102.318 88.0101 102.958C87.7026 103.593 87.2669 104.083 86.703 104.428C86.1392 104.774 85.4958 104.946 84.7731 104.946C83.671 104.946 82.774 104.563 82.082 103.796C81.3951 103.024 81.0517 102.003 81.0517 100.734V100.551ZM81.9743 100.802C81.9743 101.787 82.2306 102.597 82.7432 103.232C83.2609 103.862 83.9376 104.177 84.7731 104.177C85.6035 104.177 86.275 103.862 86.7876 103.232C87.3053 102.597 87.5642 101.762 87.5642 100.726V100.551C87.5642 99.9209 87.4463 99.3445 87.2105 98.8214C86.9747 98.2983 86.6441 97.8946 86.2186 97.6102C85.7932 97.3207 85.3062 97.176 84.7577 97.176C83.9376 97.176 83.2686 97.4959 82.7509 98.1358C82.2332 98.7706 81.9743 99.6035 81.9743 100.634V100.802Z"/>
<path d="M94.2305 97.3283C94.0357 97.2928 93.8281 97.275 93.6077 97.275C93.0336 97.275 92.5466 97.435 92.1468 97.7549C91.7521 98.0698 91.4701 98.5294 91.301 99.1338V104.794H90.386V96.5513H91.2856L91.301 97.8616C91.7879 96.8865 92.5697 96.3989 93.6461 96.3989C93.9024 96.3989 94.1049 96.4319 94.2535 96.498L94.2305 97.3283Z"/>
<path d="M107.543 99.4916H102.216V103.937H108.341V104.715H101.253V93.8193H108.302V94.6051H102.216V98.7134H107.543V99.4916Z"/>
<path d="M112.816 99.9032L115.1 96.6181H116.211L113.34 100.592L116.336 104.715H115.233L112.823 101.288L110.414 104.715H109.311L112.299 100.592L109.428 96.6181H110.531L112.816 99.9032Z"/>
<path d="M124.753 100.749C124.753 102.011 124.461 103.014 123.877 103.757C123.293 104.495 122.511 104.865 121.53 104.865C120.372 104.865 119.486 104.475 118.87 103.697V107.828H117.939V96.6181H118.808L118.855 97.763C119.465 96.8999 120.349 96.4684 121.507 96.4684C122.518 96.4684 123.311 96.8351 123.885 97.5684C124.464 98.3018 124.753 99.3195 124.753 100.622V100.749ZM123.814 100.592C123.814 99.559 123.593 98.7433 123.149 98.1446C122.706 97.546 122.088 97.2467 121.295 97.2467C120.722 97.2467 120.229 97.3789 119.817 97.6433C119.405 97.9077 119.089 98.2918 118.87 98.7957V102.679C119.095 103.143 119.415 103.498 119.833 103.742C120.25 103.987 120.743 104.109 121.311 104.109C122.099 104.109 122.711 103.809 123.149 103.211C123.593 102.607 123.814 101.734 123.814 100.592Z"/>
<path d="M130.112 104.865C129.392 104.865 128.74 104.695 128.156 104.356C127.577 104.016 127.126 103.545 126.803 102.941C126.479 102.333 126.318 101.652 126.318 100.898V100.577C126.318 99.7984 126.474 99.0975 126.787 98.4739C127.105 97.8503 127.546 97.3614 128.109 97.0072C128.672 96.648 129.283 96.4684 129.94 96.4684C130.967 96.4684 131.781 96.8051 132.38 97.4786C132.985 98.1471 133.288 99.0626 133.288 100.225V100.726H127.249V100.898C127.249 101.816 127.522 102.582 128.07 103.196C128.623 103.804 129.316 104.109 130.151 104.109C130.652 104.109 131.092 104.021 131.473 103.847C131.859 103.672 132.208 103.393 132.521 103.009L133.108 103.435C132.42 104.388 131.421 104.865 130.112 104.865ZM129.94 97.2317C129.236 97.2317 128.641 97.4786 128.156 97.9725C127.676 98.4664 127.384 99.1299 127.28 99.9631H132.357V99.8658C132.331 99.0875 132.099 98.4539 131.661 97.965C131.223 97.4761 130.649 97.2317 129.94 97.2317Z"/>
<path d="M139.022 97.3813C138.824 97.3464 138.613 97.329 138.388 97.329C137.804 97.329 137.309 97.4861 136.902 97.8004C136.5 98.1097 136.214 98.5612 136.041 99.1549V104.715H135.111V96.6181H136.026L136.041 97.9052C136.537 96.9473 137.332 96.4684 138.427 96.4684C138.688 96.4684 138.894 96.5008 139.045 96.5657L139.022 97.3813Z"/>
<path d="M142.354 94.5452V96.6181H144.107V97.3514H142.354V102.747C142.354 103.196 142.438 103.53 142.605 103.75C142.777 103.969 143.061 104.079 143.458 104.079C143.614 104.079 143.867 104.054 144.216 104.004L144.255 104.737C144.01 104.822 143.677 104.865 143.254 104.865C142.613 104.865 142.146 104.687 141.854 104.333C141.562 103.974 141.416 103.448 141.416 102.754V97.3514H139.859V96.6181H141.416V94.5452H142.354Z"/>
</mask>
<path d="M12 104.443V93.3516H15.1875C16.1221 93.3516 16.96 93.5598 17.7014 93.9763C18.4428 94.3876 19.0198 94.9793 19.4322 95.7512C19.8499 96.5232 20.0588 97.4018 20.0588 98.387V99.4078C20.0588 100.398 19.8525 101.277 19.4401 102.044C19.0276 102.81 18.4454 103.402 17.6936 103.819C16.947 104.235 16.0881 104.443 15.117 104.443H12ZM12.9633 94.1515V103.651H15.1248C16.3257 103.651 17.289 103.265 18.0147 102.493C18.7404 101.716 19.1033 100.667 19.1033 99.3469V98.3718C19.1033 97.0971 18.7456 96.0763 18.0304 95.3094C17.3151 94.5425 16.3727 94.1566 15.2031 94.1515H12.9633Z" fill="white"/>
<path d="M25.5722 104.596C24.8517 104.596 24.1991 104.423 23.6143 104.078C23.0348 103.732 22.5831 103.252 22.2594 102.638C21.9357 102.018 21.7739 101.325 21.7739 100.558V100.231C21.7739 99.4383 21.9305 98.7248 22.2438 98.0899C22.5623 97.4551 23.0034 96.9574 23.5673 96.5968C24.1312 96.2312 24.7421 96.0483 25.3999 96.0483C26.4285 96.0483 27.243 96.3912 27.8434 97.0768C28.449 97.7573 28.7519 98.6892 28.7519 99.8725V100.383H22.7058V100.558C22.7058 101.493 22.98 102.272 23.5282 102.897C24.0816 103.516 24.776 103.826 25.6114 103.826C26.1126 103.826 26.5538 103.737 26.9349 103.56C27.3213 103.382 27.6711 103.097 27.9844 102.706L28.5717 103.141C27.8826 104.111 26.8827 104.596 25.5722 104.596ZM25.3999 96.8254C24.6951 96.8254 24.0999 97.0768 23.6143 97.5795C23.134 98.0823 22.8416 98.7578 22.7372 99.6059H27.8199V99.5069C27.7938 98.7146 27.5615 98.0696 27.1229 97.5719C26.6843 97.0742 26.11 96.8254 25.3999 96.8254ZM26.4415 92.7422H27.5771L25.768 94.8752H24.9457L26.4415 92.7422Z" fill="white"/>
<path d="M33.7093 103.826C34.3619 103.826 34.9075 103.648 35.3461 103.293C35.7899 102.932 36.0301 102.468 36.0666 101.899H36.9673C36.9411 102.402 36.7793 102.861 36.4817 103.278C36.1841 103.689 35.7873 104.012 35.2913 104.245C34.8005 104.479 34.2732 104.596 33.7093 104.596C32.5972 104.596 31.7148 104.22 31.0622 103.468C30.4148 102.717 30.0911 101.706 30.0911 100.436V100.162C30.0911 99.3494 30.2373 98.6308 30.5296 98.0061C30.822 97.3815 31.2397 96.899 31.7827 96.5587C32.3309 96.2185 32.9705 96.0483 33.7015 96.0483C34.6308 96.0483 35.3957 96.3175 35.9961 96.8558C36.6018 97.3942 36.9255 98.1026 36.9673 98.9812H36.0666C36.0248 98.3363 35.7847 97.8157 35.3461 97.4196C34.9128 97.0234 34.3645 96.8254 33.7015 96.8254C32.8556 96.8254 32.1978 97.1225 31.7279 97.7167C31.2632 98.3109 31.0309 99.1437 31.0309 100.215V100.482C31.0309 101.533 31.2632 102.353 31.7279 102.943C32.1978 103.532 32.8583 103.826 33.7093 103.826Z" fill="white"/>
<path d="M38.33 100.2C38.33 99.4078 38.4866 98.6943 38.7999 98.0595C39.1183 97.4246 39.5647 96.932 40.1391 96.5816C40.7186 96.2261 41.3739 96.0483 42.1048 96.0483C43.2326 96.0483 44.1463 96.4343 44.8459 97.2063C45.5455 97.9731 45.8953 98.9914 45.8953 100.261V100.451C45.8953 101.249 45.7361 101.967 45.4176 102.607C45.1043 103.242 44.6605 103.732 44.0862 104.078C43.5119 104.423 42.8566 104.596 42.1205 104.596C40.9979 104.596 40.0842 104.212 39.3794 103.445C38.6798 102.673 38.33 101.653 38.33 100.383V100.2ZM39.2698 100.451C39.2698 101.437 39.5308 102.247 40.0529 102.882C40.5802 103.511 41.2694 103.826 42.1205 103.826C42.9663 103.826 43.6502 103.511 44.1724 102.882C44.6997 102.247 44.9634 101.411 44.9634 100.375V100.2C44.9634 99.5703 44.8433 98.9939 44.6031 98.4708C44.3629 97.9477 44.0262 97.544 43.5928 97.2596C43.1595 96.9701 42.6635 96.8254 42.1048 96.8254C41.2694 96.8254 40.5881 97.1453 40.0607 97.7852C39.5334 98.42 39.2698 99.2529 39.2698 100.284V100.451Z" fill="white"/>
<path d="M51.7534 96.9777C51.555 96.9422 51.3435 96.9244 51.119 96.9244C50.5343 96.9244 50.0383 97.0844 49.631 97.4043C49.229 97.7192 48.9418 98.1788 48.7695 98.7832V104.443H47.8376V96.2007H48.7539L48.7695 97.511C49.2655 96.5359 50.0617 96.0483 51.1582 96.0483C51.4192 96.0483 51.6255 96.0814 51.7769 96.1474L51.7534 96.9777Z" fill="white"/>
<path d="M67.1116 101.335C66.9835 102.503 66.5606 103.397 65.843 104.017C65.1305 104.636 64.1796 104.946 62.9904 104.946C62.16 104.946 61.4244 104.741 60.7837 104.329C60.148 103.918 59.656 103.336 59.3074 102.585C58.9588 101.828 58.782 100.965 58.7769 99.9946V98.5548C58.7769 97.5695 58.9511 96.696 59.2997 95.9342C59.6483 95.1725 60.148 94.5859 60.799 94.1745C61.4552 93.7581 62.2087 93.5498 63.0596 93.5498C64.2591 93.5498 65.2048 93.8723 65.8968 94.5173C66.5939 95.1572 66.9989 96.0434 67.1116 97.176H66.1582C65.9224 95.2918 64.8895 94.3497 63.0596 94.3497C62.0446 94.3497 61.2347 94.7255 60.6299 95.4772C60.0302 96.2288 59.7303 97.2674 59.7303 98.5929V99.9489C59.7303 101.229 60.0225 102.249 60.6068 103.011C61.1963 103.773 61.9908 104.154 62.9904 104.154C63.9797 104.154 64.7255 103.92 65.2279 103.453C65.7302 102.981 66.0403 102.275 66.1582 101.335H67.1116Z" fill="white"/>
<path d="M68.6879 100.551C68.6879 99.7584 68.8417 99.0449 69.1492 98.4101C69.4619 97.7752 69.9002 97.2826 70.464 96.9322C71.033 96.5767 71.6763 96.3989 72.3939 96.3989C73.5011 96.3989 74.3982 96.7849 75.0851 97.5569C75.7719 98.3237 76.1154 99.342 76.1154 100.612V100.802C76.1154 101.599 75.959 102.318 75.6463 102.958C75.3388 103.593 74.9031 104.083 74.3392 104.428C73.7754 104.774 73.1321 104.946 72.4093 104.946C71.3072 104.946 70.4102 104.563 69.7182 103.796C69.0313 103.024 68.6879 102.003 68.6879 100.734V100.551ZM69.6105 100.802C69.6105 101.787 69.8668 102.597 70.3794 103.232C70.8972 103.862 71.5738 104.177 72.4093 104.177C73.2397 104.177 73.9112 103.862 74.4238 103.232C74.9415 102.597 75.2004 101.762 75.2004 100.726V100.551C75.2004 99.9209 75.0825 99.3445 74.8467 98.8214C74.6109 98.2983 74.2803 97.8946 73.8548 97.6102C73.4294 97.3207 72.9424 97.176 72.3939 97.176C71.5738 97.176 70.9048 97.4959 70.3871 98.1358C69.8694 98.7706 69.6105 99.6035 69.6105 100.634V100.802Z" fill="white"/>
<path d="M79.0525 104.794H78.1299V93.0928H79.0525V104.794Z" fill="white"/>
<path d="M81.0517 100.551C81.0517 99.7584 81.2054 99.0449 81.513 98.4101C81.8257 97.7752 82.2639 97.2826 82.8278 96.9322C83.3968 96.5767 84.0401 96.3989 84.7577 96.3989C85.8649 96.3989 86.762 96.7849 87.4488 97.5569C88.1357 98.3237 88.4791 99.342 88.4791 100.612V100.802C88.4791 101.599 88.3228 102.318 88.0101 102.958C87.7026 103.593 87.2669 104.083 86.703 104.428C86.1392 104.774 85.4958 104.946 84.7731 104.946C83.671 104.946 82.774 104.563 82.082 103.796C81.3951 103.024 81.0517 102.003 81.0517 100.734V100.551ZM81.9743 100.802C81.9743 101.787 82.2306 102.597 82.7432 103.232C83.2609 103.862 83.9376 104.177 84.7731 104.177C85.6035 104.177 86.275 103.862 86.7876 103.232C87.3053 102.597 87.5642 101.762 87.5642 100.726V100.551C87.5642 99.9209 87.4463 99.3445 87.2105 98.8214C86.9747 98.2983 86.6441 97.8946 86.2186 97.6102C85.7932 97.3207 85.3062 97.176 84.7577 97.176C83.9376 97.176 83.2686 97.4959 82.7509 98.1358C82.2332 98.7706 81.9743 99.6035 81.9743 100.634V100.802Z" fill="white"/>
<path d="M94.2305 97.3283C94.0357 97.2928 93.8281 97.275 93.6077 97.275C93.0336 97.275 92.5466 97.435 92.1468 97.7549C91.7521 98.0698 91.4701 98.5294 91.301 99.1338V104.794H90.386V96.5513H91.2856L91.301 97.8616C91.7879 96.8865 92.5697 96.3989 93.6461 96.3989C93.9024 96.3989 94.1049 96.4319 94.2535 96.498L94.2305 97.3283Z" fill="white"/>
<path d="M107.543 99.4916H102.216V103.937H108.341V104.715H101.253V93.8193H108.302V94.6051H102.216V98.7134H107.543V99.4916Z" fill="white"/>
<path d="M112.816 99.9032L115.1 96.6181H116.211L113.34 100.592L116.336 104.715H115.233L112.823 101.288L110.414 104.715H109.311L112.299 100.592L109.428 96.6181H110.531L112.816 99.9032Z" fill="white"/>
<path d="M124.753 100.749C124.753 102.011 124.461 103.014 123.877 103.757C123.293 104.495 122.511 104.865 121.53 104.865C120.372 104.865 119.486 104.475 118.87 103.697V107.828H117.939V96.6181H118.808L118.855 97.763C119.465 96.8999 120.349 96.4684 121.507 96.4684C122.518 96.4684 123.311 96.8351 123.885 97.5684C124.464 98.3018 124.753 99.3195 124.753 100.622V100.749ZM123.814 100.592C123.814 99.559 123.593 98.7433 123.149 98.1446C122.706 97.546 122.088 97.2467 121.295 97.2467C120.722 97.2467 120.229 97.3789 119.817 97.6433C119.405 97.9077 119.089 98.2918 118.87 98.7957V102.679C119.095 103.143 119.415 103.498 119.833 103.742C120.25 103.987 120.743 104.109 121.311 104.109C122.099 104.109 122.711 103.809 123.149 103.211C123.593 102.607 123.814 101.734 123.814 100.592Z" fill="white"/>
<path d="M130.112 104.865C129.392 104.865 128.74 104.695 128.156 104.356C127.577 104.016 127.126 103.545 126.803 102.941C126.479 102.333 126.318 101.652 126.318 100.898V100.577C126.318 99.7984 126.474 99.0975 126.787 98.4739C127.105 97.8503 127.546 97.3614 128.109 97.0072C128.672 96.648 129.283 96.4684 129.94 96.4684C130.967 96.4684 131.781 96.8051 132.38 97.4786C132.985 98.1471 133.288 99.0626 133.288 100.225V100.726H127.249V100.898C127.249 101.816 127.522 102.582 128.07 103.196C128.623 103.804 129.316 104.109 130.151 104.109C130.652 104.109 131.092 104.021 131.473 103.847C131.859 103.672 132.208 103.393 132.521 103.009L133.108 103.435C132.42 104.388 131.421 104.865 130.112 104.865ZM129.94 97.2317C129.236 97.2317 128.641 97.4786 128.156 97.9725C127.676 98.4664 127.384 99.1299 127.28 99.9631H132.357V99.8658C132.331 99.0875 132.099 98.4539 131.661 97.965C131.223 97.4761 130.649 97.2317 129.94 97.2317Z" fill="white"/>
<path d="M139.022 97.3813C138.824 97.3464 138.613 97.329 138.388 97.329C137.804 97.329 137.309 97.4861 136.902 97.8004C136.5 98.1097 136.214 98.5612 136.041 99.1549V104.715H135.111V96.6181H136.026L136.041 97.9052C136.537 96.9473 137.332 96.4684 138.427 96.4684C138.688 96.4684 138.894 96.5008 139.045 96.5657L139.022 97.3813Z" fill="white"/>
<path d="M142.354 94.5452V96.6181H144.107V97.3514H142.354V102.747C142.354 103.196 142.438 103.53 142.605 103.75C142.777 103.969 143.061 104.079 143.458 104.079C143.614 104.079 143.867 104.054 144.216 104.004L144.255 104.737C144.01 104.822 143.677 104.865 143.254 104.865C142.613 104.865 142.146 104.687 141.854 104.333C141.562 103.974 141.416 103.448 141.416 102.754V97.3514H139.859V96.6181H141.416V94.5452H142.354Z" fill="white"/>
<path d="M12 104.443V93.3516H15.1875C16.1221 93.3516 16.96 93.5598 17.7014 93.9763C18.4428 94.3876 19.0198 94.9793 19.4322 95.7512C19.8499 96.5232 20.0588 97.4018 20.0588 98.387V99.4078C20.0588 100.398 19.8525 101.277 19.4401 102.044C19.0276 102.81 18.4454 103.402 17.6936 103.819C16.947 104.235 16.0881 104.443 15.117 104.443H12ZM12.9633 94.1515V103.651H15.1248C16.3257 103.651 17.289 103.265 18.0147 102.493C18.7404 101.716 19.1033 100.667 19.1033 99.3469V98.3718C19.1033 97.0971 18.7456 96.0763 18.0304 95.3094C17.3151 94.5425 16.3727 94.1566 15.2031 94.1515H12.9633Z" stroke="white" stroke-width="0.6" mask="url(#path-4-outside-1_918_143)"/>
<path d="M25.5722 104.596C24.8517 104.596 24.1991 104.423 23.6143 104.078C23.0348 103.732 22.5831 103.252 22.2594 102.638C21.9357 102.018 21.7739 101.325 21.7739 100.558V100.231C21.7739 99.4383 21.9305 98.7248 22.2438 98.0899C22.5623 97.4551 23.0034 96.9574 23.5673 96.5968C24.1312 96.2312 24.7421 96.0483 25.3999 96.0483C26.4285 96.0483 27.243 96.3912 27.8434 97.0768C28.449 97.7573 28.7519 98.6892 28.7519 99.8725V100.383H22.7058V100.558C22.7058 101.493 22.98 102.272 23.5282 102.897C24.0816 103.516 24.776 103.826 25.6114 103.826C26.1126 103.826 26.5538 103.737 26.9349 103.56C27.3213 103.382 27.6711 103.097 27.9844 102.706L28.5717 103.141C27.8826 104.111 26.8827 104.596 25.5722 104.596ZM25.3999 96.8254C24.6951 96.8254 24.0999 97.0768 23.6143 97.5795C23.134 98.0823 22.8416 98.7578 22.7372 99.6059H27.8199V99.5069C27.7938 98.7146 27.5615 98.0696 27.1229 97.5719C26.6843 97.0742 26.11 96.8254 25.3999 96.8254ZM26.4415 92.7422H27.5771L25.768 94.8752H24.9457L26.4415 92.7422Z" stroke="white" stroke-width="0.6" mask="url(#path-4-outside-1_918_143)"/>
<path d="M33.7093 103.826C34.3619 103.826 34.9075 103.648 35.3461 103.293C35.7899 102.932 36.0301 102.468 36.0666 101.899H36.9673C36.9411 102.402 36.7793 102.861 36.4817 103.278C36.1841 103.689 35.7873 104.012 35.2913 104.245C34.8005 104.479 34.2732 104.596 33.7093 104.596C32.5972 104.596 31.7148 104.22 31.0622 103.468C30.4148 102.717 30.0911 101.706 30.0911 100.436V100.162C30.0911 99.3494 30.2373 98.6308 30.5296 98.0061C30.822 97.3815 31.2397 96.899 31.7827 96.5587C32.3309 96.2185 32.9705 96.0483 33.7015 96.0483C34.6308 96.0483 35.3957 96.3175 35.9961 96.8558C36.6018 97.3942 36.9255 98.1026 36.9673 98.9812H36.0666C36.0248 98.3363 35.7847 97.8157 35.3461 97.4196C34.9128 97.0234 34.3645 96.8254 33.7015 96.8254C32.8556 96.8254 32.1978 97.1225 31.7279 97.7167C31.2632 98.3109 31.0309 99.1437 31.0309 100.215V100.482C31.0309 101.533 31.2632 102.353 31.7279 102.943C32.1978 103.532 32.8583 103.826 33.7093 103.826Z" stroke="white" stroke-width="0.6" mask="url(#path-4-outside-1_918_143)"/>
<path d="M38.33 100.2C38.33 99.4078 38.4866 98.6943 38.7999 98.0595C39.1183 97.4246 39.5647 96.932 40.1391 96.5816C40.7186 96.2261 41.3739 96.0483 42.1048 96.0483C43.2326 96.0483 44.1463 96.4343 44.8459 97.2063C45.5455 97.9731 45.8953 98.9914 45.8953 100.261V100.451C45.8953 101.249 45.7361 101.967 45.4176 102.607C45.1043 103.242 44.6605 103.732 44.0862 104.078C43.5119 104.423 42.8566 104.596 42.1205 104.596C40.9979 104.596 40.0842 104.212 39.3794 103.445C38.6798 102.673 38.33 101.653 38.33 100.383V100.2ZM39.2698 100.451C39.2698 101.437 39.5308 102.247 40.0529 102.882C40.5802 103.511 41.2694 103.826 42.1205 103.826C42.9663 103.826 43.6502 103.511 44.1724 102.882C44.6997 102.247 44.9634 101.411 44.9634 100.375V100.2C44.9634 99.5703 44.8433 98.9939 44.6031 98.4708C44.3629 97.9477 44.0262 97.544 43.5928 97.2596C43.1595 96.9701 42.6635 96.8254 42.1048 96.8254C41.2694 96.8254 40.5881 97.1453 40.0607 97.7852C39.5334 98.42 39.2698 99.2529 39.2698 100.284V100.451Z" stroke="white" stroke-width="0.6" mask="url(#path-4-outside-1_918_143)"/>
<path d="M51.7534 96.9777C51.555 96.9422 51.3435 96.9244 51.119 96.9244C50.5343 96.9244 50.0383 97.0844 49.631 97.4043C49.229 97.7192 48.9418 98.1788 48.7695 98.7832V104.443H47.8376V96.2007H48.7539L48.7695 97.511C49.2655 96.5359 50.0617 96.0483 51.1582 96.0483C51.4192 96.0483 51.6255 96.0814 51.7769 96.1474L51.7534 96.9777Z" stroke="white" stroke-width="0.6" mask="url(#path-4-outside-1_918_143)"/>
<path d="M67.1116 101.335C66.9835 102.503 66.5606 103.397 65.843 104.017C65.1305 104.636 64.1796 104.946 62.9904 104.946C62.16 104.946 61.4244 104.741 60.7837 104.329C60.148 103.918 59.656 103.336 59.3074 102.585C58.9588 101.828 58.782 100.965 58.7769 99.9946V98.5548C58.7769 97.5695 58.9511 96.696 59.2997 95.9342C59.6483 95.1725 60.148 94.5859 60.799 94.1745C61.4552 93.7581 62.2087 93.5498 63.0596 93.5498C64.2591 93.5498 65.2048 93.8723 65.8968 94.5173C66.5939 95.1572 66.9989 96.0434 67.1116 97.176H66.1582C65.9224 95.2918 64.8895 94.3497 63.0596 94.3497C62.0446 94.3497 61.2347 94.7255 60.6299 95.4772C60.0302 96.2288 59.7303 97.2674 59.7303 98.5929V99.9489C59.7303 101.229 60.0225 102.249 60.6068 103.011C61.1963 103.773 61.9908 104.154 62.9904 104.154C63.9797 104.154 64.7255 103.92 65.2279 103.453C65.7302 102.981 66.0403 102.275 66.1582 101.335H67.1116Z" stroke="white" stroke-width="0.6" mask="url(#path-4-outside-1_918_143)"/>
<path d="M68.6879 100.551C68.6879 99.7584 68.8417 99.0449 69.1492 98.4101C69.4619 97.7752 69.9002 97.2826 70.464 96.9322C71.033 96.5767 71.6763 96.3989 72.3939 96.3989C73.5011 96.3989 74.3982 96.7849 75.0851 97.5569C75.7719 98.3237 76.1154 99.342 76.1154 100.612V100.802C76.1154 101.599 75.959 102.318 75.6463 102.958C75.3388 103.593 74.9031 104.083 74.3392 104.428C73.7754 104.774 73.1321 104.946 72.4093 104.946C71.3072 104.946 70.4102 104.563 69.7182 103.796C69.0313 103.024 68.6879 102.003 68.6879 100.734V100.551ZM69.6105 100.802C69.6105 101.787 69.8668 102.597 70.3794 103.232C70.8972 103.862 71.5738 104.177 72.4093 104.177C73.2397 104.177 73.9112 103.862 74.4238 103.232C74.9415 102.597 75.2004 101.762 75.2004 100.726V100.551C75.2004 99.9209 75.0825 99.3445 74.8467 98.8214C74.6109 98.2983 74.2803 97.8946 73.8548 97.6102C73.4294 97.3207 72.9424 97.176 72.3939 97.176C71.5738 97.176 70.9048 97.4959 70.3871 98.1358C69.8694 98.7706 69.6105 99.6035 69.6105 100.634V100.802Z" stroke="white" stroke-width="0.6" mask="url(#path-4-outside-1_918_143)"/>
<path d="M79.0525 104.794H78.1299V93.0928H79.0525V104.794Z" stroke="white" stroke-width="0.6" mask="url(#path-4-outside-1_918_143)"/>
<path d="M81.0517 100.551C81.0517 99.7584 81.2054 99.0449 81.513 98.4101C81.8257 97.7752 82.2639 97.2826 82.8278 96.9322C83.3968 96.5767 84.0401 96.3989 84.7577 96.3989C85.8649 96.3989 86.762 96.7849 87.4488 97.5569C88.1357 98.3237 88.4791 99.342 88.4791 100.612V100.802C88.4791 101.599 88.3228 102.318 88.0101 102.958C87.7026 103.593 87.2669 104.083 86.703 104.428C86.1392 104.774 85.4958 104.946 84.7731 104.946C83.671 104.946 82.774 104.563 82.082 103.796C81.3951 103.024 81.0517 102.003 81.0517 100.734V100.551ZM81.9743 100.802C81.9743 101.787 82.2306 102.597 82.7432 103.232C83.2609 103.862 83.9376 104.177 84.7731 104.177C85.6035 104.177 86.275 103.862 86.7876 103.232C87.3053 102.597 87.5642 101.762 87.5642 100.726V100.551C87.5642 99.9209 87.4463 99.3445 87.2105 98.8214C86.9747 98.2983 86.6441 97.8946 86.2186 97.6102C85.7932 97.3207 85.3062 97.176 84.7577 97.176C83.9376 97.176 83.2686 97.4959 82.7509 98.1358C82.2332 98.7706 81.9743 99.6035 81.9743 100.634V100.802Z" stroke="white" stroke-width="0.6" mask="url(#path-4-outside-1_918_143)"/>
<path d="M94.2305 97.3283C94.0357 97.2928 93.8281 97.275 93.6077 97.275C93.0336 97.275 92.5466 97.435 92.1468 97.7549C91.7521 98.0698 91.4701 98.5294 91.301 99.1338V104.794H90.386V96.5513H91.2856L91.301 97.8616C91.7879 96.8865 92.5697 96.3989 93.6461 96.3989C93.9024 96.3989 94.1049 96.4319 94.2535 96.498L94.2305 97.3283Z" stroke="white" stroke-width="0.6" mask="url(#path-4-outside-1_918_143)"/>
<path d="M107.543 99.4916H102.216V103.937H108.341V104.715H101.253V93.8193H108.302V94.6051H102.216V98.7134H107.543V99.4916Z" stroke="white" stroke-width="0.6" mask="url(#path-4-outside-1_918_143)"/>
<path d="M112.816 99.9032L115.1 96.6181H116.211L113.34 100.592L116.336 104.715H115.233L112.823 101.288L110.414 104.715H109.311L112.299 100.592L109.428 96.6181H110.531L112.816 99.9032Z" stroke="white" stroke-width="0.6" mask="url(#path-4-outside-1_918_143)"/>
<path d="M124.753 100.749C124.753 102.011 124.461 103.014 123.877 103.757C123.293 104.495 122.511 104.865 121.53 104.865C120.372 104.865 119.486 104.475 118.87 103.697V107.828H117.939V96.6181H118.808L118.855 97.763C119.465 96.8999 120.349 96.4684 121.507 96.4684C122.518 96.4684 123.311 96.8351 123.885 97.5684C124.464 98.3018 124.753 99.3195 124.753 100.622V100.749ZM123.814 100.592C123.814 99.559 123.593 98.7433 123.149 98.1446C122.706 97.546 122.088 97.2467 121.295 97.2467C120.722 97.2467 120.229 97.3789 119.817 97.6433C119.405 97.9077 119.089 98.2918 118.87 98.7957V102.679C119.095 103.143 119.415 103.498 119.833 103.742C120.25 103.987 120.743 104.109 121.311 104.109C122.099 104.109 122.711 103.809 123.149 103.211C123.593 102.607 123.814 101.734 123.814 100.592Z" stroke="white" stroke-width="0.6" mask="url(#path-4-outside-1_918_143)"/>
<path d="M130.112 104.865C129.392 104.865 128.74 104.695 128.156 104.356C127.577 104.016 127.126 103.545 126.803 102.941C126.479 102.333 126.318 101.652 126.318 100.898V100.577C126.318 99.7984 126.474 99.0975 126.787 98.4739C127.105 97.8503 127.546 97.3614 128.109 97.0072C128.672 96.648 129.283 96.4684 129.94 96.4684C130.967 96.4684 131.781 96.8051 132.38 97.4786C132.985 98.1471 133.288 99.0626 133.288 100.225V100.726H127.249V100.898C127.249 101.816 127.522 102.582 128.07 103.196C128.623 103.804 129.316 104.109 130.151 104.109C130.652 104.109 131.092 104.021 131.473 103.847C131.859 103.672 132.208 103.393 132.521 103.009L133.108 103.435C132.42 104.388 131.421 104.865 130.112 104.865ZM129.94 97.2317C129.236 97.2317 128.641 97.4786 128.156 97.9725C127.676 98.4664 127.384 99.1299 127.28 99.9631H132.357V99.8658C132.331 99.0875 132.099 98.4539 131.661 97.965C131.223 97.4761 130.649 97.2317 129.94 97.2317Z" stroke="white" stroke-width="0.6" mask="url(#path-4-outside-1_918_143)"/>
<path d="M139.022 97.3813C138.824 97.3464 138.613 97.329 138.388 97.329C137.804 97.329 137.309 97.4861 136.902 97.8004C136.5 98.1097 136.214 98.5612 136.041 99.1549V104.715H135.111V96.6181H136.026L136.041 97.9052C136.537 96.9473 137.332 96.4684 138.427 96.4684C138.688 96.4684 138.894 96.5008 139.045 96.5657L139.022 97.3813Z" stroke="white" stroke-width="0.6" mask="url(#path-4-outside-1_918_143)"/>
<path d="M142.354 94.5452V96.6181H144.107V97.3514H142.354V102.747C142.354 103.196 142.438 103.53 142.605 103.75C142.777 103.969 143.061 104.079 143.458 104.079C143.614 104.079 143.867 104.054 144.216 104.004L144.255 104.737C144.01 104.822 143.677 104.865 143.254 104.865C142.613 104.865 142.146 104.687 141.854 104.333C141.562 103.974 141.416 103.448 141.416 102.754V97.3514H139.859V96.6181H141.416V94.5452H142.354Z" stroke="white" stroke-width="0.6" mask="url(#path-4-outside-1_918_143)"/>
</g>
<defs>
<filter id="filter0_d_918_143" x="-40.2998" y="0" width="236.867" height="160.128" filterUnits="userSpaceOnUse" color-interpolation-filters="sRGB">
<feFlood flood-opacity="0" result="BackgroundImageFix"/>
<feColorMatrix in="SourceAlpha" type="matrix" values="0 0 0 0 0 0 0 0 0 0 0 0 0 0 0 0 0 0 127 0" result="hardAlpha"/>
<feOffset/>
<feGaussianBlur stdDeviation="26"/>
<feColorMatrix type="matrix" values="0 0 0 0 0 0 0 0 0 0 0 0 0 0 0 0 0 0 1 0"/>
<feBlend mode="normal" in2="BackgroundImageFix" result="effect1_dropShadow_918_143"/>
<feBlend mode="normal" in="SourceGraphic" in2="effect1_dropShadow_918_143" result="shape"/>
</filter>
</defs>
</svg>
